# xmcd CD database file
# Copyright (C) 1997 Ti Kan
# 
# Track frame offsets:
#     150
#     17600
#     35187
#     49140
#     65580
#     82055
#     96185
#     113927
#     129027
#     147932
# 
# Disc length: 2177 seconds
# 
# Revision: 1
# Processed by: cddbd v1.4b41PL1 Copyright (c) Steve Scherf et al.
# Submitted via: DiscPlay 4.0.3
# 
DISCID=89087f0a
DTITLE=Cleve Francis - Walkin'
DYEAR=1900
DGENRE=
TTITLE0=Walkin'
TTITLE1=Run Like The Wind
TTITLE2=I Won't Let You Walk Away
TTITLE3=If You'll Stop Hurting Me
TTITLE4=One More Last Chance
TTITLE5=Your Love Stays With Me
TTITLE6=When Will It Be Love
TTITLE7=I Was Losing You
TTITLE8=Heartaches On Parade
TTITLE9=You Can't Call It Love
EXTD=
EXTT0=
EXTT1=
EXTT2=
EXTT3=
EXTT4=
EXTT5=
EXTT6=
EXTT7=
EXTT8=
EXTT9=
PLAYORDER=
